<svg xmlns="http://www.w3.org/2000/svg" viewBox="0 0 165 150" role="img" aria-labelledby="title desc">
  <title id="title">临清安鱼形标志</title>
  <desc id="desc">融合鱼、流水、像素与代码元素的个人标志</desc>
  <g fill="none" stroke="#0b131b" stroke-linecap="round" stroke-linejoin="round">
    <path d="M18 84C25 42 60 13 104 15c18 1 34 7 47 18" stroke-width="4"/>
    <path d="M24 104c22 25 62 35 94 18 25-13 39-39 33-66" stroke-width="4"/>
    <path d="M47 105c-12 10-19 21-21 34 17-10 33-17 49-27" fill="#0b131b" stroke-width="3"/>
    <path d="M48 98c-10-20-3-44 18-59 21-15 51-14 70 4-18-5-36 0-47 13-9 11-11 26-4 39 7 12 20 19 35 18-17 13-42 13-58 2-6-4-11-10-14-17Z" fill="#0b131b" stroke-width="2"/>
    <path d="M84 57c10-8 25-10 37-4" stroke="#f4f2ec" stroke-width="4"/>
    <circle cx="117" cy="51" r="3.6" fill="#f4f2ec" stroke="none"/>
    <path d="M69 86c8-9 15-18 21-29M73 94c11-8 20-17 27-29M81 101c11-7 21-15 29-25" stroke="#f4f2ec" stroke-width="3"/>
    <circle cx="69" cy="86" r="3.5" fill="#f4f2ec" stroke="none"/>
    <circle cx="90" cy="57" r="3.5" fill="#f4f2ec" stroke="none"/>
    <circle cx="73" cy="94" r="3.5" fill="#f4f2ec" stroke="none"/>
    <circle cx="100" cy="65" r="3.5" fill="#f4f2ec" stroke="none"/>
    <circle cx="81" cy="101" r="3.5" fill="#f4f2ec" stroke="none"/>
    <circle cx="110" cy="76" r="3.5" fill="#f4f2ec" stroke="none"/>
    <path d="M42 110c20 18 53 20 75 4" stroke-width="7"/>
    <path d="M19 74h18M14 87h22M20 100h13" stroke-width="4"/>
    <rect x="5" y="70" width="7" height="7" rx="1" fill="#0b131b" stroke="none"/>
    <rect x="1" y="84" width="9" height="9" rx="1" fill="#0b131b" stroke="none"/>
    <rect x="10" y="100" width="6" height="6" rx="1" fill="#0b131b" stroke="none"/>
    <circle cx="145" cy="28" r="4" fill="#0b131b" stroke="none"/>
    <circle cx="155" cy="42" r="2.5" fill="#0b131b" stroke="none"/>
    <circle cx="142" cy="121" r="4" fill="#0b131b" stroke="none"/>
    <circle cx="151" cy="109" r="2.5" fill="#0b131b" stroke="none"/>
    <path d="M120 84l-9 8 9 8M143 84l9 8-9 8M136 80l-8 24" stroke-width="4"/>
  </g>
</svg>
